<?xml version="1.0" encoding="UTF-8"?>
<svg width="305px" height="83px" viewBox="0 0 305 83" version="1.1" xmlns="http://www.w3.org/2000/svg" xmlns:xlink="http://www.w3.org/1999/xlink">
    <!-- Generator: Sketch 48.2 (47327) - http://www.bohemiancoding.com/sketch -->
    <title>3</title>
    <desc>Created with Sketch.</desc>
    <defs></defs>
    <g id="A4" stroke="none" stroke-width="1" fill="none" fill-rule="evenodd" transform="translate(-202.000000, -235.000000)">
        <g id="3" transform="translate(202.000000, 235.000000)" fill="#FFFFFF">
            <path d="M0.300932986,46.4942568 C0.839334772,46.0953014 1.32904716,45.5611306 1.77772575,44.904443 C3.13579222,42.9614947 4.49385868,40.9340703 6.02168345,39.160074 C10.6900369,33.7536091 16.3769402,30.6279966 23.5916683,33.4157051 C31.3156713,36.2878895 37.5967287,40.6806423 38.4455203,49.8885278 C38.869916,54.5347086 42.2650822,57.8292731 46.2544024,57.5758451 C50.2437227,57.237941 53.2993722,53.7744245 53.1296139,49.3816717 C52.8749765,44.0596828 54.827197,39.4979781 57.4584508,35.1052253 C59.6653088,31.3882807 61.8721668,28.1781922 66.7102786,27.248956 C70.4979865,26.5097957 73.2459382,22.6015055 73.8737687,18.4102388 C78.3168121,25.0170813 80.9156075,33.0091257 80.9156075,41.618705 C80.9156075,64.3458185 62.8065112,82.7697842 40.4678089,82.7697842 C19.7505693,82.7697842 2.67120499,66.9233697 0.300932986,46.4942568 Z M0.237668161,37.3237098 C2.34863407,16.6150427 19.5547331,0.467625899 40.4678089,0.467625899 C48.5274305,0.467625899 56.0364811,2.86588743 62.3431168,6.99923268 C60.4074913,7.07027441 58.5435877,7.63696027 57.034055,8.74870895 C52.620339,11.9587975 51.4320308,18.8013546 54.4876804,23.5320114 C55.4213511,25.0525797 57.1189342,26.2352439 56.5247801,28.3471442 C55.4213511,32.5709449 54.0632846,36.7102696 50.7529976,39.8358821 C47.4427106,42.9614947 43.6231487,43.5528268 39.9733451,40.9340703 C34.3713209,36.9636977 28.8541759,32.6554209 27.4112303,25.2215317 C26.9019553,22.5182992 25.1194931,20.6598269 22.2336019,20.3219229 C19.6023481,19.9840188 17.3954901,21.082207 16.2071819,23.3630594 C12.6769115,30.3168676 7.29852007,34.8605019 0.237668161,37.3237098 Z M63.5186182,8.65256937 C59.1897814,8.56809335 55.4550986,12.369514 55.3702194,17.0156948 C55.2853403,21.4084475 58.9351439,25.1253921 63.2639808,25.1253921 C67.7625759,25.1253921 71.8367753,21.2394955 71.8367753,17.0156948 C71.9216545,12.707418 67.9323342,8.73704538 63.5186182,8.65256937 Z M40.3629295,48.838394 C40.2780504,51.7950545 42.9941833,54.4982869 46.0498328,54.4138109 C49.444999,54.2448589 51.0577029,51.8795305 51.2274612,48.92287 C51.3972195,45.4593534 48.9357241,44.5301173 45.3707996,44.6145933 C42.9093041,44.6145933 40.5326878,45.2904014 40.3629295,48.838394 Z M25.7600562,26.4516495 C25.7600562,23.832893 23.9775939,22.4812768 21.3463401,22.4812768 C18.7150864,22.4812768 17.1023824,24.2552731 17.0175033,26.7050775 C16.9326241,29.661738 19.6487571,29.746214 21.6858568,30.4220221 C24.2322314,30.1685941 25.7600562,28.8169778 25.7600562,26.4516495 Z" id="Shape" fill-rule="nonzero"></path>
            <path d="M89.3673282,21.8403953 L96.117118,21.8403953 L105.887647,41.0843678 L115.512347,21.8403953 L122.116308,21.8403953 L122.116308,50.0205537 L115.199857,50.0205537 L115.199857,31.649418 L105.970978,50.0205537 L103.304394,50.0205537 L93.7630247,31.4415997 L93.7630247,50.0205537 L89.3673282,50.0205537 L89.3673282,21.8403953 Z M127.115592,54.5646617 C127.251338,54.6343356 127.4312,54.7249103 127.655182,54.8363885 C127.879163,54.9478667 128.123503,55.052376 128.388209,55.1499194 C128.652915,55.2474629 128.934585,55.3310703 129.233227,55.4007442 C129.531869,55.470418 129.830507,55.5052545 130.12915,55.5052545 C130.373493,55.5052545 130.617833,55.3589415 130.862177,55.0663112 C131.106521,54.7736809 131.337287,54.432284 131.554481,54.0421102 C131.771675,53.6519364 131.965111,53.2617685 132.134795,52.8715948 C132.304478,52.481421 132.430041,52.1957624 132.511489,52.0146103 L134.323696,47.9805126 L124.16312,28.1026527 L130.841815,28.1026527 L137.418702,40.915616 L143.242198,28.1026527 L147.701449,28.1026527 L136.176627,53.8748937 C135.796537,54.7109803 135.314644,55.4704143 134.730934,56.1532183 C134.147224,56.8360224 133.509225,57.4177906 132.816917,57.8985404 C132.12461,58.3792902 131.401771,58.7520399 130.648377,59.0168007 C129.894984,59.2815614 129.151783,59.4139398 128.418752,59.4139398 C127.807893,59.4139398 127.244553,59.3407833 126.728716,59.1944682 C126.212879,59.048153 125.764923,58.8286836 125.384832,58.5360533 L127.115592,54.5646617 Z M156.414731,35.4189171 C156.414731,37.231259 156.69184,38.8307641 157.246069,40.2174803 C157.800297,41.6041965 158.534638,42.767785 159.449114,43.7082806 C160.36359,44.6487762 161.416608,45.3627184 162.608198,45.8501286 C163.799788,46.3375387 165.039855,46.5812401 166.328435,46.5812401 C167.31219,46.5812401 168.230116,46.4130518 169.082242,46.0766702 C169.934368,45.7402885 170.731058,45.2837774 171.472338,44.7071232 C172.213618,44.1304689 172.909857,43.4645805 173.561075,42.709438 C174.212293,41.9542956 174.83579,41.1579754 175.431585,40.3204538 L178.320485,42.4211123 C177.696978,43.4096625 176.945317,44.3638737 176.06548,45.2837745 C175.185643,46.2036754 174.19844,47.0137252 173.103839,47.7139482 C172.009239,48.4141712 170.817666,48.9736548 169.529086,49.3924156 C168.240506,49.8111764 166.87574,50.0205537 165.434747,50.0205537 C163.009999,50.0205537 160.775801,49.6704474 158.732085,48.9702244 C156.688369,48.2700014 154.925258,47.281466 153.442698,46.0045888 C151.960138,44.7277115 150.803204,43.1934223 149.971862,41.4016751 C149.14052,39.6099279 148.724855,37.6156952 148.724855,35.4189171 C148.724855,33.2907882 149.119736,31.3343121 149.909511,29.5494298 C150.699286,27.7645476 151.81119,26.2233936 153.245255,24.9259215 C154.67932,23.6284494 156.397401,22.6158872 158.39955,21.8882044 C160.401699,21.1605217 162.615114,20.7966857 165.039861,20.7966857 C166.660978,20.7966857 168.143516,20.9854685 169.487519,21.3630398 C170.831522,21.740611 172.05427,22.262338 173.155798,22.9282364 C174.257326,23.5941347 175.241066,24.3904549 176.107047,25.3172206 C176.973029,26.2439864 177.738545,27.2634135 178.403618,28.3755324 L175.493936,30.3938122 C174.89814,29.5562905 174.250396,28.7668352 173.550683,28.0254226 C172.85097,27.28401 172.106238,26.6352837 171.316463,26.0792242 C170.526688,25.5231648 169.695358,25.0838157 168.822449,24.7611639 C167.94954,24.4385122 167.042005,24.2771887 166.099817,24.2771887 C164.811237,24.2771887 163.581562,24.5174577 162.410755,24.9980029 C161.239949,25.4785481 160.211178,26.1890579 159.324413,27.1295535 C158.437648,28.0700492 157.731018,29.2336376 157.204502,30.6203538 C156.677985,32.00707 156.414731,33.6065751 156.414731,35.4189171 Z M179.44791,33.9062659 C179.670693,33.0281735 180.060558,32.2289842 180.617516,31.508674 C181.174474,30.7883637 181.867181,30.1778243 182.695656,29.6770372 C183.524132,29.1762501 184.470946,28.7886604 185.536129,28.5142565 C186.601312,28.2398526 187.753502,28.1026527 188.992734,28.1026527 C190.524369,28.1026527 191.847125,28.2398526 192.961041,28.5142565 C194.074958,28.7886604 194.990444,29.1762501 195.707528,29.6770372 C196.424612,30.1778243 196.953714,30.7815038 197.294851,31.4880938 C197.635988,32.1946838 197.806554,32.9870131 197.806554,33.8651056 L197.806554,45.9250961 C197.806554,46.7894684 198.078067,47.5234878 198.621101,48.1271763 C199.164135,48.7308649 199.929941,49.2316445 200.918542,49.6295301 L193.232557,49.6295301 C193.009774,49.6295301 192.793956,49.5677902 192.585096,49.4443084 C192.376237,49.3208267 192.188266,49.1596168 192.021179,48.960674 C191.854092,48.7617312 191.707892,48.5456413 191.582577,48.312398 C191.457261,48.0791547 191.366757,47.8527749 191.311061,47.6332518 C190.92119,47.9899769 190.552211,48.3158266 190.204112,48.6108108 C189.856013,48.905795 189.47311,49.1561847 189.055391,49.3619877 C188.637673,49.5677906 188.171227,49.7290004 187.656041,49.8456221 C187.140854,49.9622437 186.521248,50.0205537 185.797202,50.0205537 C184.808601,50.0205537 183.920962,49.8833538 183.134259,49.6089499 C182.347555,49.334546 181.679215,48.9538164 181.129219,48.4667495 C180.579223,47.9796825 180.158029,47.403443 179.865626,46.7380136 C179.573223,46.0725842 179.427024,45.3488548 179.427024,44.5668037 C179.427024,43.3594266 179.768156,42.3235674 180.45043,41.4591952 C181.132703,40.5948229 182.034266,39.8402236 183.155144,39.1953744 C184.276023,38.5505253 185.546565,37.9880058 186.966808,37.507799 C188.387052,37.0275922 189.835121,36.5679725 191.311061,36.1289263 L191.311061,34.0709075 C191.311061,33.3986179 191.241442,32.8258084 191.102202,32.3524617 C190.962963,31.879115 190.76803,31.4949553 190.517399,31.1999711 C190.266768,30.9049869 189.963927,30.6923271 189.608866,30.5619853 C189.253805,30.4316434 188.860459,30.3664735 188.428816,30.3664735 C187.91363,30.3664735 187.454146,30.4625134 187.050352,30.6545961 C186.646557,30.8466788 186.298463,31.1073586 186.00606,31.4366433 C185.713657,31.765928 185.476953,32.1432276 185.295942,32.5685537 C185.114931,32.9938797 184.982655,33.4397793 184.899111,33.9062659 L179.44791,33.9062659 Z M186.079161,47.9331346 C188.0574,47.9331346 189.66108,46.2976381 189.66108,44.2801511 C189.66108,42.262664 188.0574,40.6271676 186.079161,40.6271676 C184.100921,40.6271676 182.497241,42.262664 182.497241,44.2801511 C182.497241,46.2976381 184.100921,47.9331346 186.079161,47.9331346 Z M252.088824,45.8457154 C255.480092,45.8457154 258.229258,43.0420073 258.229258,39.583458 C258.229258,36.1249087 255.480092,33.3212006 252.088824,33.3212006 C248.697556,33.3212006 245.94839,36.1249087 245.94839,39.583458 C245.94839,43.0420073 248.697556,45.8457154 252.088824,45.8457154 Z M229.201989,35.4645506 C229.201989,34.989136 229.143039,34.538198 229.025136,34.1117232 C228.907234,33.6852483 228.744253,33.3147102 228.53619,33.0000976 C228.328127,32.685485 228.08539,32.4337987 227.807973,32.2450311 C227.530555,32.0562636 227.232336,31.9618812 226.913305,31.9618812 C226.538792,31.9618812 226.150413,32.0248028 225.748157,32.1506478 C225.345902,32.2764929 224.94712,32.4442837 224.5518,32.6540255 C224.15648,32.8637672 223.78544,33.1084622 223.438668,33.3881178 C223.091896,33.6677735 222.786741,33.9614075 222.523194,34.2690287 L222.523194,50.0205537 L216.135687,50.0205537 L216.135687,35.4645506 C216.135687,34.989136 216.073269,34.538198 215.948431,34.1117232 C215.823593,33.6852483 215.653677,33.3147102 215.438679,33.0000976 C215.22368,32.685485 214.977476,32.4337987 214.700058,32.2450311 C214.42264,32.0562636 214.138292,31.9618812 213.847003,31.9618812 C213.500231,31.9618812 213.129191,32.0248028 212.733871,32.1506478 C212.338551,32.2764929 211.943237,32.4442837 211.547917,32.6540255 C211.152597,32.8637672 210.771153,33.1084622 210.403575,33.3881178 C210.035997,33.6677735 209.706568,33.9614075 209.41528,34.2690287 L209.41528,50.0205537 L202.965354,50.0205537 L202.965354,30.4936965 L207.480302,28.1026527 L209.41528,28.1026527 L209.41528,30.4307743 C210.427854,29.7316352 211.478557,29.1793236 212.567421,28.7738229 C213.656285,28.3683222 214.700053,28.1655749 215.698756,28.1655749 C216.253591,28.1655749 216.811886,28.2284965 217.373656,28.3543415 C217.935427,28.4801866 218.476383,28.6584644 218.996541,28.8891803 C219.516699,29.1198962 219.998705,29.3995476 220.442573,29.728143 C220.886441,30.0567384 221.267885,30.4307722 221.586915,30.8502556 C222.072395,30.4587377 222.606416,30.0951909 223.188993,29.7596041 C223.77157,29.4240173 224.385347,29.1408702 225.030343,28.9101543 C225.675339,28.6794384 226.334196,28.497665 227.006933,28.3648286 C227.679671,28.2319921 228.348931,28.1655749 229.014733,28.1655749 C229.91634,28.1655749 230.772854,28.3403571 231.5843,28.6899266 C232.395747,29.0394962 233.106619,29.5218949 233.716937,30.1371373 C234.327256,30.7523797 234.812729,31.4724822 235.173372,32.2974663 C235.534015,33.1224504 235.714334,34.0103438 235.714334,34.9611729 L235.714334,50.0205537 L229.201989,50.0205537 L229.201989,35.4645506 Z M239.807956,31.484102 L244.377512,29.1463623 L246.318008,29.1463623 L246.318008,31.2790371 C247.055262,30.6638394 247.907263,30.1648532 248.874039,29.7820634 C249.840814,29.3992737 250.964065,29.2078818 252.243825,29.2078818 C253.607048,29.2078818 254.845058,29.4710457 255.957893,29.9973816 C257.070728,30.5237174 258.023579,31.2346019 258.816474,32.1300564 C259.609369,33.0255109 260.221419,34.0679137 260.652643,35.257296 C261.083866,36.4466783 261.299475,37.7112324 261.299475,39.0509964 C261.299475,40.7735501 261.042135,42.3627871 260.527449,43.8187551 C260.012763,45.2747231 259.282476,46.5324418 258.336566,47.591949 C257.390657,48.6514562 256.243063,49.478543 254.89375,50.0732342 C253.544438,50.6679253 252.028223,50.9652664 250.34506,50.9652664 C249.482613,50.9652664 248.741893,50.9310893 248.122879,50.862734 C247.503864,50.7943787 246.902247,50.6439993 246.318008,50.4115912 L246.318008,59.4139398 L239.807956,59.4139398 L239.807956,31.484102 Z M271.833118,28.1026527 L271.833118,43.2749677 C271.833118,43.6952555 271.916214,44.0910206 272.082409,44.4622749 C272.248604,44.8335291 272.473656,45.155745 272.757572,45.4289321 C273.041488,45.7021192 273.370411,45.9157623 273.74435,46.0698678 C274.118288,46.2239733 274.51992,46.301025 274.949257,46.301025 C275.184699,46.301025 275.4513,46.2344804 275.749066,46.1013892 C276.046831,45.9682981 276.351518,45.7826737 276.663133,45.5445106 C276.974748,45.3063475 277.282897,45.0261598 277.587588,44.7039392 C277.892278,44.3817185 278.162341,44.0314839 278.397784,43.6532248 L278.397784,28.1026527 L284.837804,28.1026527 L284.837804,49.6212823 L278.397784,49.6212823 L278.397784,47.624925 C277.53911,48.3534239 276.635439,48.9348134 275.686743,49.3691108 C274.738047,49.8034082 273.806677,50.0205537 272.892605,50.0205537 C271.840037,50.0205537 270.856732,49.841934 269.94266,49.4846894 C269.028588,49.1274447 268.235712,48.644121 267.564007,48.0347036 C266.892303,47.4252863 266.362565,46.7108076 265.974776,45.8912464 C265.586988,45.0716851 265.393097,44.1996009 265.393097,43.2749677 L265.393097,28.1026527 L271.833118,28.1026527 Z M291.459841,43.6612754 C291.821044,44.8137717 292.339431,45.709001 293.015016,46.34699 C293.690601,46.9849791 294.536741,47.3039688 295.553463,47.3039688 C295.981557,47.3039688 296.372855,47.2490888 296.72737,47.1393273 C297.081884,47.0295657 297.389572,46.8752159 297.650441,46.676273 C297.911311,46.4773302 298.111977,46.2475204 298.252445,45.9868367 C298.392913,45.726153 298.463146,45.4448933 298.463146,45.143049 C298.463146,44.649122 298.372846,44.2066523 298.192244,43.8156268 C298.011642,43.4246013 297.76081,43.0713116 297.43974,42.7557471 C297.11867,42.4401826 296.737405,42.1486329 296.295934,41.8810891 C295.854463,41.6135453 295.379554,41.3631555 294.871193,41.1299122 C294.05514,40.7594669 293.245788,40.3581573 292.443113,39.9259711 C291.640438,39.493785 290.918041,38.9998654 290.275901,38.4441976 C289.633761,37.8885297 289.115374,37.2539802 288.720726,36.5405301 C288.326077,35.82708 288.128756,35.0038807 288.128756,34.0709075 C288.128756,33.1790948 288.309355,32.3661855 288.670559,31.6321551 C289.031762,30.8981247 289.540116,30.2704352 290.195634,29.7490678 C290.851152,29.2277004 291.633748,28.8229608 292.543447,28.5348367 C293.453145,28.2467126 294.456474,28.1026527 295.553463,28.1026527 C296.556807,28.1026527 297.446425,28.1986926 298.222345,28.3907754 C298.998264,28.5828581 299.680527,28.8572579 300.269156,29.2139829 C300.857784,29.570708 301.379515,30.0063176 301.834364,30.5208249 C302.289214,31.0353322 302.697234,31.6150017 303.058438,32.2598508 L299.446418,33.5358225 C299.259127,32.863533 299.031706,32.3421735 298.764148,31.9717282 C298.496589,31.601283 298.215657,31.3234532 297.921343,31.1382306 C297.627029,30.9530079 297.339408,30.839818 297.058471,30.7986574 C296.777535,30.7574969 296.530047,30.7369169 296.316001,30.7369169 C295.928041,30.7369169 295.560154,30.7815068 295.212328,30.8706881 C294.864502,30.9598694 294.556815,31.0867793 294.289256,31.2514216 C294.021698,31.4160639 293.807654,31.6184338 293.647119,31.8585372 C293.486584,32.0986406 293.406318,32.3764703 293.406318,32.6920348 C293.406318,33.0899204 293.506651,33.4672201 293.70732,33.8239452 C293.907988,34.1806702 294.188921,34.51338 294.550124,34.8220843 C294.911328,35.1307887 295.336071,35.4223385 295.824365,35.6967424 C296.312659,35.9711462 296.844423,36.231826 297.419673,36.4787895 C298.289238,36.8492348 299.135379,37.2608344 299.958121,37.7136009 C300.780863,38.1663673 301.513293,38.6774368 302.155433,39.2468249 C302.797573,39.816213 303.312615,40.4473325 303.700575,41.1402023 C304.088534,41.8330721 304.282511,42.6048214 304.282511,43.4554735 C304.282511,44.3747265 304.135356,45.2322258 303.841042,46.0279971 C303.546728,46.8237684 303.068475,47.5166278 302.406268,48.1065961 C301.744061,48.6965645 300.887887,49.1630441 299.83772,49.506049 C298.787553,49.8490538 297.513326,50.0205537 296.014999,50.0205537 C294.730719,50.0205537 293.643779,49.8696338 292.754148,49.5677895 C291.864516,49.2659453 291.11202,48.8783556 290.496635,48.4050089 C289.881251,47.9316622 289.372898,47.4000126 288.97156,46.8100443 C288.570223,46.2200759 288.215713,45.6369764 287.908021,45.0607282 L291.459841,43.6612754 Z M256.182446,66.7199068 L259.135479,66.7199068 L263.410086,74.5600438 L267.620892,66.7199068 L270.510125,66.7199068 L270.510125,78.2007121 L267.484178,78.2007121 L267.484178,70.7161753 L263.446543,78.2007121 L262.279913,78.2007121 L258.105564,70.6315086 L258.105564,78.2007121 L256.182446,78.2007121 L256.182446,66.7199068 Z M272.556937,66.7199068 L274.565177,66.7199068 L281.8533,73.9120973 L281.8533,66.7199068 L283.814399,66.7199068 L283.814399,78.2007121 L282.466143,78.2007121 L274.546321,70.2575968 L274.546321,78.0338399 L272.556937,78.0338399 L272.556937,66.7199068 Z M290.427248,78.2007121 C289.717166,78.2007121 289.095853,78.1159673 288.563292,77.9464751 C288.03073,77.776983 287.578205,77.5435631 287.205703,77.2462085 C286.833201,76.9488538 286.536368,76.5935204 286.315194,76.1801974 C286.094021,75.7668745 285.942695,75.3134154 285.86121,74.8198067 L287.877949,74.8198067 C287.947794,75.1231085 288.049648,75.4055911 288.183516,75.6672632 C288.317384,75.9289353 288.487627,76.1564082 288.694249,76.3496887 C288.900871,76.5429692 289.145322,76.6946178 289.427609,76.804639 C289.709895,76.9146603 290.037285,76.96967 290.409787,76.96967 C290.654242,76.96967 290.897237,76.9429085 291.138782,76.8893847 C291.380326,76.8358608 291.597131,76.7481425 291.789202,76.6262271 C291.981273,76.5043117 292.13551,76.3467161 292.251917,76.1534356 C292.368324,75.9601551 292.426527,75.7207882 292.426527,75.4353278 C292.426527,75.0785022 292.336313,74.7603375 292.155882,74.4808241 C291.975451,74.2013108 291.736821,73.9470764 291.439983,73.7181133 C291.143145,73.4891502 290.80557,73.2765448 290.427248,73.0802908 C290.048926,72.8840367 289.661878,72.6862988 289.266095,72.4870712 C288.870311,72.2878436 288.483264,72.0782118 288.104942,71.8581693 C287.726619,71.6381269 287.389044,71.392813 287.092207,71.1222203 C286.795369,70.8516275 286.556739,70.5453569 286.376308,70.203399 C286.195877,69.8614412 286.105663,69.4704257 286.105663,69.0303408 C286.105663,68.5486263 286.208973,68.1040878 286.415595,67.6967119 C286.622217,67.2893361 286.920505,66.9354894 287.310469,66.6351612 C287.700432,66.334833 288.177693,66.0999263 288.742266,65.9304342 C289.30684,65.7609421 289.949978,65.6761973 290.671701,65.6761973 C291.265377,65.6761973 291.80375,65.7594553 292.286839,65.9259739 C292.769928,66.0924925 293.196262,66.3229389 293.565854,66.61732 C293.935446,66.9117011 294.245374,67.2566273 294.495649,67.652109 C294.745924,68.0475906 294.937993,68.4713146 295.071861,68.9232937 L293.247191,68.9232937 C293.142425,68.6378332 293.0202,68.3642711 292.880511,68.102599 C292.740823,67.8409269 292.569125,67.6119673 292.365413,67.4157132 C292.161701,67.2194591 291.91434,67.0633503 291.623323,66.947382 C291.332306,66.8314137 290.986,66.7734304 290.584397,66.7734304 C290.206074,66.7734304 289.887415,66.8239799 289.62841,66.9250805 C289.369404,67.0261811 289.16133,67.1555284 289.004181,67.3131264 C288.847031,67.4707243 288.733536,67.6461609 288.663692,67.8394414 C288.593848,68.032722 288.558926,68.2215393 288.558926,68.4058992 C288.558926,68.7270422 288.652051,69.0184454 288.838302,69.2801175 C289.024553,69.5417896 289.270459,69.7856167 289.576027,70.0116062 C289.881595,70.2375958 290.229355,70.4531746 290.619318,70.6583493 C291.009282,70.863524 291.406514,71.0701824 291.811028,71.2783307 C292.215542,71.4864789 292.612775,71.7050313 293.002738,71.9339944 C293.392701,72.1629574 293.740462,72.4142184 294.04603,72.6877846 C294.351598,72.9613509 294.597504,73.2646481 294.783755,73.5976853 C294.970006,73.9307225 295.06313,74.3053837 295.06313,74.7216802 C295.06313,75.2152889 294.964186,75.6732082 294.766294,76.0954518 C294.568402,76.5176954 294.274479,76.8849228 293.884516,77.1971452 C293.494553,77.5093676 293.010016,77.7546815 292.430892,77.9330943 C291.851768,78.111507 291.183893,78.2007121 290.427248,78.2007121 Z M297.118672,66.7199068 L300.188889,66.7199068 L300.188889,78.2007121 L297.118672,78.2007121 L297.118672,66.7199068 Z" id="MyCampus-MNSI"></path>
        </g>
    </g>
</svg>
