<?xml version="1.0" encoding="UTF-8"?>
<svg width="305px" height="83px" viewBox="0 0 305 83" version="1.1" xmlns="http://www.w3.org/2000/svg" xmlns:xlink="http://www.w3.org/1999/xlink">
    <!-- Generator: Sketch 48.2 (47327) - http://www.bohemiancoding.com/sketch -->
    <title>3</title>
    <desc>Created with Sketch.</desc>
    <defs></defs>
    <g id="A4" stroke="none" stroke-width="1" fill="none" fill-rule="evenodd" transform="translate(-202.000000, -235.000000)">
        <g id="3" transform="translate(195.000000, 225.000000)" fill="#FFFFFF">
            <path d="M7.30093299,56.4942568 C7.83933477,56.0953014 8.32904716,55.5611306 8.77772575,54.904443 C10.1357922,52.9614947 11.4938587,50.9340703 13.0216835,49.160074 C17.6900369,43.7536091 23.3769402,40.6279966 30.5916683,43.4157051 C38.3156713,46.2878895 44.5967287,50.6806423 45.4455203,59.8885278 C45.869916,64.5347086 49.2650822,67.8292731 53.2544024,67.5758451 C57.2437227,67.237941 60.2993722,63.7744245 60.1296139,59.3816717 C59.8749765,54.0596828 61.827197,49.4979781 64.4584508,45.1052253 C66.6653088,41.3882807 68.8721668,38.1781922 73.7102786,37.248956 C77.4979865,36.5097957 80.2459382,32.6015055 80.8737687,28.4102388 C85.3168121,35.0170813 87.9156075,43.0091257 87.9156075,51.618705 C87.9156075,74.3458185 69.8065112,92.7697842 47.4678089,92.7697842 C26.7505693,92.7697842 9.67120499,76.9233697 7.30093299,56.4942568 Z M7.23766816,47.3237098 C9.34863407,26.6150427 26.5547331,10.4676259 47.4678089,10.4676259 C55.5274305,10.4676259 63.0364811,12.8658874 69.3431168,16.9992327 C67.4074913,17.0702744 65.5435877,17.6369603 64.034055,18.7487089 C59.620339,21.9587975 58.4320308,28.8013546 61.4876804,33.5320114 C62.4213511,35.0525797 64.1189342,36.2352439 63.5247801,38.3471442 C62.4213511,42.5709449 61.0632846,46.7102696 57.7529976,49.8358821 C54.4427106,52.9614947 50.6231487,53.5528268 46.9733451,50.9340703 C41.3713209,46.9636977 35.8541759,42.6554209 34.4112303,35.2215317 C33.9019553,32.5182992 32.1194931,30.6598269 29.2336019,30.3219229 C26.6023481,29.9840188 24.3954901,31.082207 23.2071819,33.3630594 C19.6769115,40.3168676 14.2985201,44.8605019 7.23766816,47.3237098 Z M70.5186182,18.6525694 C66.1897814,18.5680934 62.4550986,22.369514 62.3702194,27.0156948 C62.2853403,31.4084475 65.9351439,35.1253921 70.2639808,35.1253921 C74.7625759,35.1253921 78.8367753,31.2394955 78.8367753,27.0156948 C78.9216545,22.707418 74.9323342,18.7370454 70.5186182,18.6525694 Z M47.3629295,58.838394 C47.2780504,61.7950545 49.9941833,64.4982869 53.0498328,64.4138109 C56.444999,64.2448589 58.0577029,61.8795305 58.2274612,58.92287 C58.3972195,55.4593534 55.9357241,54.5301173 52.3707996,54.6145933 C49.9093041,54.6145933 47.5326878,55.2904014 47.3629295,58.838394 Z M32.7600562,36.4516495 C32.7600562,33.832893 30.9775939,32.4812768 28.3463401,32.4812768 C25.7150864,32.4812768 24.1023824,34.2552731 24.0175033,36.7050775 C23.9326241,39.661738 26.6487571,39.746214 28.6858568,40.4220221 C31.2322314,40.1685941 32.7600562,38.8169778 32.7600562,36.4516495 Z" id="Shape" fill-rule="nonzero"></path>
            <path d="M96.3673282,31.8403953 L103.117118,31.8403953 L112.887647,51.0843678 L122.512347,31.8403953 L129.116308,31.8403953 L129.116308,60.0205537 L122.199857,60.0205537 L122.199857,41.649418 L112.970978,60.0205537 L110.304394,60.0205537 L100.763025,41.4415997 L100.763025,60.0205537 L96.3673282,60.0205537 L96.3673282,31.8403953 Z M134.115592,64.5646617 C134.251338,64.6343356 134.4312,64.7249103 134.655182,64.8363885 C134.879163,64.9478667 135.123503,65.052376 135.388209,65.1499194 C135.652915,65.2474629 135.934585,65.3310703 136.233227,65.4007442 C136.531869,65.470418 136.830507,65.5052545 137.12915,65.5052545 C137.373493,65.5052545 137.617833,65.3589415 137.862177,65.0663112 C138.106521,64.7736809 138.337287,64.432284 138.554481,64.0421102 C138.771675,63.6519364 138.965111,63.2617685 139.134795,62.8715948 C139.304478,62.481421 139.430041,62.1957624 139.511489,62.0146103 L141.323696,57.9805126 L131.16312,38.1026527 L137.841815,38.1026527 L144.418702,50.915616 L150.242198,38.1026527 L154.701449,38.1026527 L143.176627,63.8748937 C142.796537,64.7109803 142.314644,65.4704143 141.730934,66.1532183 C141.147224,66.8360224 140.509225,67.4177906 139.816917,67.8985404 C139.12461,68.3792902 138.401771,68.7520399 137.648377,69.0168007 C136.894984,69.2815614 136.151783,69.4139398 135.418752,69.4139398 C134.807893,69.4139398 134.244553,69.3407833 133.728716,69.1944682 C133.212879,69.048153 132.764923,68.8286836 132.384832,68.5360533 L134.115592,64.5646617 Z M163.414731,45.4189171 C163.414731,47.231259 163.69184,48.8307641 164.246069,50.2174803 C164.800297,51.6041965 165.534638,52.767785 166.449114,53.7082806 C167.36359,54.6487762 168.416608,55.3627184 169.608198,55.8501286 C170.799788,56.3375387 172.039855,56.5812401 173.328435,56.5812401 C174.31219,56.5812401 175.230116,56.4130518 176.082242,56.0766702 C176.934368,55.7402885 177.731058,55.2837774 178.472338,54.7071232 C179.213618,54.1304689 179.909857,53.4645805 180.561075,52.709438 C181.212293,51.9542956 181.83579,51.1579754 182.431585,50.3204538 L185.320485,52.4211123 C184.696978,53.4096625 183.945317,54.3638737 183.06548,55.2837745 C182.185643,56.2036754 181.19844,57.0137252 180.103839,57.7139482 C179.009239,58.4141712 177.817666,58.9736548 176.529086,59.3924156 C175.240506,59.8111764 173.87574,60.0205537 172.434747,60.0205537 C170.009999,60.0205537 167.775801,59.6704474 165.732085,58.9702244 C163.688369,58.2700014 161.925258,57.281466 160.442698,56.0045888 C158.960138,54.7277115 157.803204,53.1934223 156.971862,51.4016751 C156.14052,49.6099279 155.724855,47.6156952 155.724855,45.4189171 C155.724855,43.2907882 156.119736,41.3343121 156.909511,39.5494298 C157.699286,37.7645476 158.81119,36.2233936 160.245255,34.9259215 C161.67932,33.6284494 163.397401,32.6158872 165.39955,31.8882044 C167.401699,31.1605217 169.615114,30.7966857 172.039861,30.7966857 C173.660978,30.7966857 175.143516,30.9854685 176.487519,31.3630398 C177.831522,31.740611 179.05427,32.262338 180.155798,32.9282364 C181.257326,33.5941347 182.241066,34.3904549 183.107047,35.3172206 C183.973029,36.2439864 184.738545,37.2634135 185.403618,38.3755324 L182.493936,40.3938122 C181.89814,39.5562905 181.250396,38.7668352 180.550683,38.0254226 C179.85097,37.28401 179.106238,36.6352837 178.316463,36.0792242 C177.526688,35.5231648 176.695358,35.0838157 175.822449,34.7611639 C174.94954,34.4385122 174.042005,34.2771887 173.099817,34.2771887 C171.811237,34.2771887 170.581562,34.5174577 169.410755,34.9980029 C168.239949,35.4785481 167.211178,36.1890579 166.324413,37.1295535 C165.437648,38.0700492 164.731018,39.2336376 164.204502,40.6203538 C163.677985,42.00707 163.414731,43.6065751 163.414731,45.4189171 Z M186.44791,43.9062659 C186.670693,43.0281735 187.060558,42.2289842 187.617516,41.508674 C188.174474,40.7883637 188.867181,40.1778243 189.695656,39.6770372 C190.524132,39.1762501 191.470946,38.7886604 192.536129,38.5142565 C193.601312,38.2398526 194.753502,38.1026527 195.992734,38.1026527 C197.524369,38.1026527 198.847125,38.2398526 199.961041,38.5142565 C201.074958,38.7886604 201.990444,39.1762501 202.707528,39.6770372 C203.424612,40.1778243 203.953714,40.7815038 204.294851,41.4880938 C204.635988,42.1946838 204.806554,42.9870131 204.806554,43.8651056 L204.806554,55.9250961 C204.806554,56.7894684 205.078067,57.5234878 205.621101,58.1271763 C206.164135,58.7308649 206.929941,59.2316445 207.918542,59.6295301 L200.232557,59.6295301 C200.009774,59.6295301 199.793956,59.5677902 199.585096,59.4443084 C199.376237,59.3208267 199.188266,59.1596168 199.021179,58.960674 C198.854092,58.7617312 198.707892,58.5456413 198.582577,58.312398 C198.457261,58.0791547 198.366757,57.8527749 198.311061,57.6332518 C197.92119,57.9899769 197.552211,58.3158266 197.204112,58.6108108 C196.856013,58.905795 196.47311,59.1561847 196.055391,59.3619877 C195.637673,59.5677906 195.171227,59.7290004 194.656041,59.8456221 C194.140854,59.9622437 193.521248,60.0205537 192.797202,60.0205537 C191.808601,60.0205537 190.920962,59.8833538 190.134259,59.6089499 C189.347555,59.334546 188.679215,58.9538164 188.129219,58.4667495 C187.579223,57.9796825 187.158029,57.403443 186.865626,56.7380136 C186.573223,56.0725842 186.427024,55.3488548 186.427024,54.5668037 C186.427024,53.3594266 186.768156,52.3235674 187.45043,51.4591952 C188.132703,50.5948229 189.034266,49.8402236 190.155144,49.1953744 C191.276023,48.5505253 192.546565,47.9880058 193.966808,47.507799 C195.387052,47.0275922 196.835121,46.5679725 198.311061,46.1289263 L198.311061,44.0709075 C198.311061,43.3986179 198.241442,42.8258084 198.102202,42.3524617 C197.962963,41.879115 197.76803,41.4949553 197.517399,41.1999711 C197.266768,40.9049869 196.963927,40.6923271 196.608866,40.5619853 C196.253805,40.4316434 195.860459,40.3664735 195.428816,40.3664735 C194.91363,40.3664735 194.454146,40.4625134 194.050352,40.6545961 C193.646557,40.8466788 193.298463,41.1073586 193.00606,41.4366433 C192.713657,41.765928 192.476953,42.1432276 192.295942,42.5685537 C192.114931,42.9938797 191.982655,43.4397793 191.899111,43.9062659 L186.44791,43.9062659 Z M193.079161,57.9331346 C195.0574,57.9331346 196.66108,56.2976381 196.66108,54.2801511 C196.66108,52.262664 195.0574,50.6271676 193.079161,50.6271676 C191.100921,50.6271676 189.497241,52.262664 189.497241,54.2801511 C189.497241,56.2976381 191.100921,57.9331346 193.079161,57.9331346 Z M259.088824,55.8457154 C262.480092,55.8457154 265.229258,53.0420073 265.229258,49.583458 C265.229258,46.1249087 262.480092,43.3212006 259.088824,43.3212006 C255.697556,43.3212006 252.94839,46.1249087 252.94839,49.583458 C252.94839,53.0420073 255.697556,55.8457154 259.088824,55.8457154 Z M236.201989,45.4645506 C236.201989,44.989136 236.143039,44.538198 236.025136,44.1117232 C235.907234,43.6852483 235.744253,43.3147102 235.53619,43.0000976 C235.328127,42.685485 235.08539,42.4337987 234.807973,42.2450311 C234.530555,42.0562636 234.232336,41.9618812 233.913305,41.9618812 C233.538792,41.9618812 233.150413,42.0248028 232.748157,42.1506478 C232.345902,42.2764929 231.94712,42.4442837 231.5518,42.6540255 C231.15648,42.8637672 230.78544,43.1084622 230.438668,43.3881178 C230.091896,43.6677735 229.786741,43.9614075 229.523194,44.2690287 L229.523194,60.0205537 L223.135687,60.0205537 L223.135687,45.4645506 C223.135687,44.989136 223.073269,44.538198 222.948431,44.1117232 C222.823593,43.6852483 222.653677,43.3147102 222.438679,43.0000976 C222.22368,42.685485 221.977476,42.4337987 221.700058,42.2450311 C221.42264,42.0562636 221.138292,41.9618812 220.847003,41.9618812 C220.500231,41.9618812 220.129191,42.0248028 219.733871,42.1506478 C219.338551,42.2764929 218.943237,42.4442837 218.547917,42.6540255 C218.152597,42.8637672 217.771153,43.1084622 217.403575,43.3881178 C217.035997,43.6677735 216.706568,43.9614075 216.41528,44.2690287 L216.41528,60.0205537 L209.965354,60.0205537 L209.965354,40.4936965 L214.480302,38.1026527 L216.41528,38.1026527 L216.41528,40.4307743 C217.427854,39.7316352 218.478557,39.1793236 219.567421,38.7738229 C220.656285,38.3683222 221.700053,38.1655749 222.698756,38.1655749 C223.253591,38.1655749 223.811886,38.2284965 224.373656,38.3543415 C224.935427,38.4801866 225.476383,38.6584644 225.996541,38.8891803 C226.516699,39.1198962 226.998705,39.3995476 227.442573,39.728143 C227.886441,40.0567384 228.267885,40.4307722 228.586915,40.8502556 C229.072395,40.4587377 229.606416,40.0951909 230.188993,39.7596041 C230.77157,39.4240173 231.385347,39.1408702 232.030343,38.9101543 C232.675339,38.6794384 233.334196,38.497665 234.006933,38.3648286 C234.679671,38.2319921 235.348931,38.1655749 236.014733,38.1655749 C236.91634,38.1655749 237.772854,38.3403571 238.5843,38.6899266 C239.395747,39.0394962 240.106619,39.5218949 240.716937,40.1371373 C241.327256,40.7523797 241.812729,41.4724822 242.173372,42.2974663 C242.534015,43.1224504 242.714334,44.0103438 242.714334,44.9611729 L242.714334,60.0205537 L236.201989,60.0205537 L236.201989,45.4645506 Z M246.807956,41.484102 L251.377512,39.1463623 L253.318008,39.1463623 L253.318008,41.2790371 C254.055262,40.6638394 254.907263,40.1648532 255.874039,39.7820634 C256.840814,39.3992737 257.964065,39.2078818 259.243825,39.2078818 C260.607048,39.2078818 261.845058,39.4710457 262.957893,39.9973816 C264.070728,40.5237174 265.023579,41.2346019 265.816474,42.1300564 C266.609369,43.0255109 267.221419,44.0679137 267.652643,45.257296 C268.083866,46.4466783 268.299475,47.7112324 268.299475,49.0509964 C268.299475,50.7735501 268.042135,52.3627871 267.527449,53.8187551 C267.012763,55.2747231 266.282476,56.5324418 265.336566,57.591949 C264.390657,58.6514562 263.243063,59.478543 261.89375,60.0732342 C260.544438,60.6679253 259.028223,60.9652664 257.34506,60.9652664 C256.482613,60.9652664 255.741893,60.9310893 255.122879,60.862734 C254.503864,60.7943787 253.902247,60.6439993 253.318008,60.4115912 L253.318008,69.4139398 L246.807956,69.4139398 L246.807956,41.484102 Z M278.833118,38.1026527 L278.833118,53.2749677 C278.833118,53.6952555 278.916214,54.0910206 279.082409,54.4622749 C279.248604,54.8335291 279.473656,55.155745 279.757572,55.4289321 C280.041488,55.7021192 280.370411,55.9157623 280.74435,56.0698678 C281.118288,56.2239733 281.51992,56.301025 281.949257,56.301025 C282.184699,56.301025 282.4513,56.2344804 282.749066,56.1013892 C283.046831,55.9682981 283.351518,55.7826737 283.663133,55.5445106 C283.974748,55.3063475 284.282897,55.0261598 284.587588,54.7039392 C284.892278,54.3817185 285.162341,54.0314839 285.397784,53.6532248 L285.397784,38.1026527 L291.837804,38.1026527 L291.837804,59.6212823 L285.397784,59.6212823 L285.397784,57.624925 C284.53911,58.3534239 283.635439,58.9348134 282.686743,59.3691108 C281.738047,59.8034082 280.806677,60.0205537 279.892605,60.0205537 C278.840037,60.0205537 277.856732,59.841934 276.94266,59.4846894 C276.028588,59.1274447 275.235712,58.644121 274.564007,58.0347036 C273.892303,57.4252863 273.362565,56.7108076 272.974776,55.8912464 C272.586988,55.0716851 272.393097,54.1996009 272.393097,53.2749677 L272.393097,38.1026527 L278.833118,38.1026527 Z M298.459841,53.6612754 C298.821044,54.8137717 299.339431,55.709001 300.015016,56.34699 C300.690601,56.9849791 301.536741,57.3039688 302.553463,57.3039688 C302.981557,57.3039688 303.372855,57.2490888 303.72737,57.1393273 C304.081884,57.0295657 304.389572,56.8752159 304.650441,56.676273 C304.911311,56.4773302 305.111977,56.2475204 305.252445,55.9868367 C305.392913,55.726153 305.463146,55.4448933 305.463146,55.143049 C305.463146,54.649122 305.372846,54.2066523 305.192244,53.8156268 C305.011642,53.4246013 304.76081,53.0713116 304.43974,52.7557471 C304.11867,52.4401826 303.737405,52.1486329 303.295934,51.8810891 C302.854463,51.6135453 302.379554,51.3631555 301.871193,51.1299122 C301.05514,50.7594669 300.245788,50.3581573 299.443113,49.9259711 C298.640438,49.493785 297.918041,48.9998654 297.275901,48.4441976 C296.633761,47.8885297 296.115374,47.2539802 295.720726,46.5405301 C295.326077,45.82708 295.128756,45.0038807 295.128756,44.0709075 C295.128756,43.1790948 295.309355,42.3661855 295.670559,41.6321551 C296.031762,40.8981247 296.540116,40.2704352 297.195634,39.7490678 C297.851152,39.2277004 298.633748,38.8229608 299.543447,38.5348367 C300.453145,38.2467126 301.456474,38.1026527 302.553463,38.1026527 C303.556807,38.1026527 304.446425,38.1986926 305.222345,38.3907754 C305.998264,38.5828581 306.680527,38.8572579 307.269156,39.2139829 C307.857784,39.570708 308.379515,40.0063176 308.834364,40.5208249 C309.289214,41.0353322 309.697234,41.6150017 310.058438,42.2598508 L306.446418,43.5358225 C306.259127,42.863533 306.031706,42.3421735 305.764148,41.9717282 C305.496589,41.601283 305.215657,41.3234532 304.921343,41.1382306 C304.627029,40.9530079 304.339408,40.839818 304.058471,40.7986574 C303.777535,40.7574969 303.530047,40.7369169 303.316001,40.7369169 C302.928041,40.7369169 302.560154,40.7815068 302.212328,40.8706881 C301.864502,40.9598694 301.556815,41.0867793 301.289256,41.2514216 C301.021698,41.4160639 300.807654,41.6184338 300.647119,41.8585372 C300.486584,42.0986406 300.406318,42.3764703 300.406318,42.6920348 C300.406318,43.0899204 300.506651,43.4672201 300.70732,43.8239452 C300.907988,44.1806702 301.188921,44.51338 301.550124,44.8220843 C301.911328,45.1307887 302.336071,45.4223385 302.824365,45.6967424 C303.312659,45.9711462 303.844423,46.231826 304.419673,46.4787895 C305.289238,46.8492348 306.135379,47.2608344 306.958121,47.7136009 C307.780863,48.1663673 308.513293,48.6774368 309.155433,49.2468249 C309.797573,49.816213 310.312615,50.4473325 310.700575,51.1402023 C311.088534,51.8330721 311.282511,52.6048214 311.282511,53.4554735 C311.282511,54.3747265 311.135356,55.2322258 310.841042,56.0279971 C310.546728,56.8237684 310.068475,57.5166278 309.406268,58.1065961 C308.744061,58.6965645 307.887887,59.1630441 306.83772,59.506049 C305.787553,59.8490538 304.513326,60.0205537 303.014999,60.0205537 C301.730719,60.0205537 300.643779,59.8696338 299.754148,59.5677895 C298.864516,59.2659453 298.11202,58.8783556 297.496635,58.4050089 C296.881251,57.9316622 296.372898,57.4000126 295.97156,56.8100443 C295.570223,56.2200759 295.215713,55.6369764 294.908021,55.0607282 L298.459841,53.6612754 Z M263.182446,76.7199068 L266.135479,76.7199068 L270.410086,84.5600438 L274.620892,76.7199068 L277.510125,76.7199068 L277.510125,88.2007121 L274.484178,88.2007121 L274.484178,80.7161753 L270.446543,88.2007121 L269.279913,88.2007121 L265.105564,80.6315086 L265.105564,88.2007121 L263.182446,88.2007121 L263.182446,76.7199068 Z M279.556937,76.7199068 L281.565177,76.7199068 L288.8533,83.9120973 L288.8533,76.7199068 L290.814399,76.7199068 L290.814399,88.2007121 L289.466143,88.2007121 L281.546321,80.2575968 L281.546321,88.0338399 L279.556937,88.0338399 L279.556937,76.7199068 Z M297.427248,88.2007121 C296.717166,88.2007121 296.095853,88.1159673 295.563292,87.9464751 C295.03073,87.776983 294.578205,87.5435631 294.205703,87.2462085 C293.833201,86.9488538 293.536368,86.5935204 293.315194,86.1801974 C293.094021,85.7668745 292.942695,85.3134154 292.86121,84.8198067 L294.877949,84.8198067 C294.947794,85.1231085 295.049648,85.4055911 295.183516,85.6672632 C295.317384,85.9289353 295.487627,86.1564082 295.694249,86.3496887 C295.900871,86.5429692 296.145322,86.6946178 296.427609,86.804639 C296.709895,86.9146603 297.037285,86.96967 297.409787,86.96967 C297.654242,86.96967 297.897237,86.9429085 298.138782,86.8893847 C298.380326,86.8358608 298.597131,86.7481425 298.789202,86.6262271 C298.981273,86.5043117 299.13551,86.3467161 299.251917,86.1534356 C299.368324,85.9601551 299.426527,85.7207882 299.426527,85.4353278 C299.426527,85.0785022 299.336313,84.7603375 299.155882,84.4808241 C298.975451,84.2013108 298.736821,83.9470764 298.439983,83.7181133 C298.143145,83.4891502 297.80557,83.2765448 297.427248,83.0802908 C297.048926,82.8840367 296.661878,82.6862988 296.266095,82.4870712 C295.870311,82.2878436 295.483264,82.0782118 295.104942,81.8581693 C294.726619,81.6381269 294.389044,81.392813 294.092207,81.1222203 C293.795369,80.8516275 293.556739,80.5453569 293.376308,80.203399 C293.195877,79.8614412 293.105663,79.4704257 293.105663,79.0303408 C293.105663,78.5486263 293.208973,78.1040878 293.415595,77.6967119 C293.622217,77.2893361 293.920505,76.9354894 294.310469,76.6351612 C294.700432,76.334833 295.177693,76.0999263 295.742266,75.9304342 C296.30684,75.7609421 296.949978,75.6761973 297.671701,75.6761973 C298.265377,75.6761973 298.80375,75.7594553 299.286839,75.9259739 C299.769928,76.0924925 300.196262,76.3229389 300.565854,76.61732 C300.935446,76.9117011 301.245374,77.2566273 301.495649,77.652109 C301.745924,78.0475906 301.937993,78.4713146 302.071861,78.9232937 L300.247191,78.9232937 C300.142425,78.6378332 300.0202,78.3642711 299.880511,78.102599 C299.740823,77.8409269 299.569125,77.6119673 299.365413,77.4157132 C299.161701,77.2194591 298.91434,77.0633503 298.623323,76.947382 C298.332306,76.8314137 297.986,76.7734304 297.584397,76.7734304 C297.206074,76.7734304 296.887415,76.8239799 296.62841,76.9250805 C296.369404,77.0261811 296.16133,77.1555284 296.004181,77.3131264 C295.847031,77.4707243 295.733536,77.6461609 295.663692,77.8394414 C295.593848,78.032722 295.558926,78.2215393 295.558926,78.4058992 C295.558926,78.7270422 295.652051,79.0184454 295.838302,79.2801175 C296.024553,79.5417896 296.270459,79.7856167 296.576027,80.0116062 C296.881595,80.2375958 297.229355,80.4531746 297.619318,80.6583493 C298.009282,80.863524 298.406514,81.0701824 298.811028,81.2783307 C299.215542,81.4864789 299.612775,81.7050313 300.002738,81.9339944 C300.392701,82.1629574 300.740462,82.4142184 301.04603,82.6877846 C301.351598,82.9613509 301.597504,83.2646481 301.783755,83.5976853 C301.970006,83.9307225 302.06313,84.3053837 302.06313,84.7216802 C302.06313,85.2152889 301.964186,85.6732082 301.766294,86.0954518 C301.568402,86.5176954 301.274479,86.8849228 300.884516,87.1971452 C300.494553,87.5093676 300.010016,87.7546815 299.430892,87.9330943 C298.851768,88.111507 298.183893,88.2007121 297.427248,88.2007121 Z M304.118672,76.7199068 L307.188889,76.7199068 L307.188889,88.2007121 L304.118672,88.2007121 L304.118672,76.7199068 Z" id="MyCampus-MNSI"></path>
        </g>
    </g>
</svg>